<?xml version="1.0" encoding="UTF-8"?>
<svg width="582px" height="93px" viewBox="0 0 582 93" version="1.1" xmlns="http://www.w3.org/2000/svg" xmlns:xlink="http://www.w3.org/1999/xlink">
    <!-- Generator: Sketch 54.1 (76490) - https://sketchapp.com -->
    <title>ShareLock</title>
    <desc>Created with Sketch.</desc>
    <g id="Page-2" stroke="none" stroke-width="1" fill="none" fill-rule="evenodd">
        <g id="ComingSoon_web_LongerForm" transform="translate(-359.000000, -395.000000)" fill="#FFFFFF" fill-rule="nonzero">
            <path d="M374.678694,456.295455 C374.678694,459.693867 375.264026,462.594908 376.434708,464.998663 C377.60539,467.402418 379.235957,469.370982 381.32646,470.904412 C383.416963,472.437842 385.821006,473.556815 388.53866,474.261364 C391.256314,474.965913 394.203879,475.318182 397.381443,475.318182 C400.809868,475.318182 403.736529,474.924469 406.161512,474.137032 C408.586496,473.349595 410.551539,472.334231 412.056701,471.090909 C413.561863,469.847587 414.648908,468.417789 415.317869,466.801471 C415.98683,465.185152 416.321306,463.548137 416.321306,461.890374 C416.321306,458.491962 415.547831,455.984634 414.000859,454.368316 C412.453887,452.751997 410.760605,451.612303 408.920962,450.949198 C405.743398,449.788764 402.043263,448.690513 397.820447,447.654412 C393.597631,446.61831 388.392356,445.271399 382.204467,443.613636 C378.357942,442.618979 375.15952,441.313511 372.609107,439.697193 C370.058693,438.080874 368.030935,436.278085 366.525773,434.28877 C365.020611,432.299455 363.95447,430.18584 363.32732,427.947861 C362.700169,425.709882 362.386598,423.430493 362.386598,421.109626 C362.386598,416.633667 363.32731,412.758706 365.208763,409.484626 C367.090216,406.210545 369.577877,403.496 372.671821,401.340909 C375.765766,399.185818 379.277758,397.590246 383.207904,396.554144 C387.138049,395.518043 391.109946,395 395.123711,395 C399.806438,395 404.217333,395.60093 408.356529,396.802807 C412.495725,398.004685 416.133146,399.807475 419.2689,402.21123 C422.404655,404.614985 424.892316,407.578191 426.731959,411.100936 C428.571601,414.623681 429.491409,418.705859 429.491409,423.347594 L413.812715,423.347594 C413.394614,417.628314 411.429571,413.587579 407.917526,411.225267 C404.405481,408.862956 399.931871,407.681818 394.496564,407.681818 C392.656921,407.681818 390.775496,407.868314 388.852234,408.24131 C386.928971,408.614307 385.172975,409.235958 383.584192,410.106283 C381.99541,410.976609 380.678413,412.157747 379.633162,413.649733 C378.58791,415.141719 378.065292,417.006673 378.065292,419.244652 C378.065292,422.394401 379.047814,424.860285 381.012887,426.64238 C382.977959,428.424474 385.54924,429.771386 388.726804,430.683155 C389.061285,430.766043 390.378282,431.118312 392.677835,431.739973 C394.977388,432.361634 397.548668,433.045451 400.391753,433.791444 C403.234837,434.537437 406.015164,435.262697 408.732818,435.967246 C411.450472,436.671795 413.39461,437.189838 414.565292,437.52139 C417.491996,438.43316 420.042372,439.676463 422.216495,441.251337 C424.390618,442.826211 426.209328,444.629001 427.67268,446.659759 C429.136033,448.690518 430.223078,450.866299 430.933849,453.187166 C431.64462,455.508033 432,457.828865 432,460.149733 C432,465.12302 430.975669,469.370972 428.926976,472.893717 C426.878283,476.416461 424.181575,479.29678 420.83677,481.534759 C417.491965,483.772738 413.687307,485.409754 409.42268,486.445856 C405.158054,487.481957 400.809873,488 396.378007,488 C391.27718,488 386.469095,487.378348 381.953608,486.135027 C377.438122,484.891705 373.508035,482.985307 370.16323,480.415775 C366.818425,477.846244 364.142622,474.551491 362.135739,470.531417 C360.128856,466.511344 359.08362,461.76607 359,456.295455 L374.678694,456.295455 Z M443,398 L457.061674,398 L457.061674,431.032213 L457.30837,431.032213 C459.035251,428.123702 461.604976,425.693054 465.017621,423.740196 C468.430267,421.787339 472.233459,420.810924 476.427313,420.810924 C483.417069,420.810924 488.926558,422.639104 492.955947,426.295518 C496.985336,429.951932 499,435.436471 499,442.7493 L499,487 L484.938326,487 L484.938326,446.488796 C484.773861,441.419676 483.704856,437.742542 481.731278,435.457283 C479.757699,433.172024 476.67403,432.029412 472.480176,432.029412 C470.095436,432.029412 467.957425,432.465682 466.066079,433.338235 C464.174734,434.210789 462.571225,435.415725 461.255507,436.953081 C459.939788,438.490437 458.911898,440.297842 458.171806,442.37535 C457.431714,444.452858 457.061674,446.654984 457.061674,448.981793 L457.061674,487 L443,487 L443,398 Z M569.178295,471.904587 C569.178295,473.651385 569.405682,474.899079 569.860465,475.647706 C570.315248,476.396334 571.204128,476.770642 572.527132,476.770642 L574.015504,476.770642 C574.594318,476.770642 575.25581,476.687463 576,476.521101 L576,486.377982 C575.503873,486.544343 574.863053,486.731497 574.077519,486.93945 C573.291986,487.147402 572.485792,487.334556 571.658915,487.500917 C570.832037,487.667279 570.005172,487.792049 569.178295,487.875229 C568.351417,487.95841 567.648582,488 567.069767,488 C564.175696,488 561.777787,487.417743 559.875969,486.253211 C557.974151,485.088679 556.733853,483.050779 556.155039,480.13945 C553.343655,482.884417 549.891493,484.880728 545.79845,486.12844 C541.705406,487.376153 537.757125,488 533.953488,488 C531.059417,488 528.289419,487.604897 525.643411,486.814679 C522.997403,486.024461 520.661509,484.859947 518.635659,483.321101 C516.609809,481.782255 514.997422,479.827535 513.79845,477.456881 C512.599477,475.086227 512,472.320505 512,469.159633 C512,465.166953 512.723507,461.922948 514.170543,459.427523 C515.617578,456.932098 517.519368,454.977377 519.875969,453.563303 C522.23257,452.149228 524.878538,451.130278 527.813953,450.506422 C530.749369,449.882566 533.705411,449.404283 536.682171,449.07156 C539.245491,448.572475 541.684743,448.218961 544,448.011009 C546.315257,447.803057 548.361748,447.449544 550.139535,446.950459 C551.917322,446.451374 553.322992,445.681962 554.356589,444.642202 C555.390186,443.602441 555.906977,442.042824 555.906977,439.963303 C555.906977,438.133324 555.472873,436.636091 554.604651,435.47156 C553.73643,434.307028 552.661505,433.412847 551.379845,432.788991 C550.098185,432.165134 548.671842,431.749237 547.100775,431.541284 C545.529708,431.333332 544.041351,431.229358 542.635659,431.229358 C538.666647,431.229358 535.40053,432.061154 532.837209,433.724771 C530.273889,435.388388 528.826875,437.966955 528.496124,441.46055 L514.356589,441.46055 C514.604652,437.301508 515.596891,433.849555 517.333333,431.104587 C519.069776,428.359619 521.28164,426.15536 523.968992,424.491743 C526.656344,422.828126 529.695073,421.663612 533.085271,420.998165 C536.475469,420.332718 539.948303,420 543.503876,420 C546.646011,420 549.746755,420.332718 552.806202,420.998165 C555.865648,421.663612 558.614975,422.744947 561.054264,424.242202 C563.493552,425.739457 565.457357,427.673383 566.945736,430.044037 C568.434116,432.414691 569.178295,435.305182 569.178295,438.715596 L569.178295,471.904587 Z M555,454 C552.842622,455.424415 550.187426,456.283241 547.034335,456.576503 C543.881243,456.869765 540.728199,457.309651 537.575107,457.896175 C536.081538,458.147542 534.629478,458.503641 533.218884,458.964481 C531.808291,459.425321 530.563668,460.05373 529.484979,460.849727 C528.406289,461.645723 527.555797,462.693072 526.933476,463.991803 C526.311156,465.290535 526,466.861557 526,468.704918 C526,470.296911 526.456362,471.637517 527.369099,472.726776 C528.281836,473.816035 529.381253,474.67486 530.667382,475.303279 C531.953511,475.931697 533.364084,476.371583 534.899142,476.622951 C536.434199,476.874318 537.824028,477 539.06867,477 C540.645215,477 542.3462,476.79053 544.171674,476.371585 C545.997148,475.952639 547.718876,475.240442 549.33691,474.234973 C550.954944,473.229503 552.303285,471.951738 553.381974,470.401639 C554.460663,468.851541 555,466.945367 555,464.68306 L555,454 Z M585,420.740113 L598.419142,420.740113 L598.419142,433.169492 L598.669967,433.169492 C599.088011,431.42937 599.903184,429.730705 601.115512,428.073446 C602.327839,426.416188 603.790971,424.903962 605.50495,423.536723 C607.21893,422.169485 609.121002,421.071567 611.211221,420.242938 C613.301441,419.414308 615.433432,419 617.607261,419 C619.279436,419 620.42904,419.041431 621.056106,419.124294 C621.683171,419.207157 622.33113,419.290018 623,419.372881 L623,433.045198 C621.996695,432.879472 620.972502,432.734464 619.927393,432.610169 C618.882283,432.485875 617.858091,432.423729 616.854785,432.423729 C614.430131,432.423729 612.151826,432.900184 610.019802,433.853107 C607.887778,434.806031 606.027511,436.21468 604.438944,438.079096 C602.850377,439.943512 601.596264,442.242924 600.676568,444.977401 C599.756871,447.711878 599.29703,450.860622 599.29703,454.423729 L599.29703,485 L585,485 L585,420.740113 Z M671,449 C670.834586,446.766412 670.359026,444.615582 669.573308,442.547445 C668.78759,440.479308 667.712413,438.680056 666.347744,437.149635 C664.983076,435.619214 663.328957,434.37835 661.385338,433.427007 C659.44172,432.475664 657.270689,432 654.87218,432 C652.390965,432 650.137228,432.434302 648.110902,433.30292 C646.084576,434.171537 644.347752,435.371039 642.900376,436.90146 C641.453,438.431881 640.295117,440.231133 639.426692,442.29927 C638.558266,444.367407 638.082707,446.600961 638,449 L671,449 Z M637.241986,457.680734 C637.241986,460.176159 637.59595,462.588368 638.303889,464.917431 C639.011827,467.246495 640.073719,469.284395 641.489596,471.031193 C642.905473,472.77799 644.696114,474.171249 646.861574,475.211009 C649.027033,476.25077 651.608887,476.770642 654.607215,476.770642 C658.771559,476.770642 662.123806,475.876462 664.664056,474.088073 C667.204306,472.299685 669.099055,469.617143 670.348358,466.040367 L683.840766,466.040367 C683.091184,469.533962 681.800257,472.653197 679.967945,475.398165 C678.135634,478.143133 675.928564,480.451367 673.346671,482.322936 C670.764777,484.194505 667.870601,485.608558 664.664056,486.565138 C661.457511,487.521717 658.105264,488 654.607215,488 C649.526715,488 645.029291,487.168204 641.114807,485.504587 C637.200323,483.84097 633.889719,481.511942 631.182896,478.517431 C628.476072,475.522921 626.435574,471.946198 625.06134,467.787156 C623.687107,463.628114 623,459.053236 623,454.062385 C623,449.487439 623.728749,445.141305 625.18627,441.023853 C626.64379,436.906401 628.725931,433.288089 631.432755,430.168807 C634.139579,427.049526 637.40854,424.574933 641.239737,422.744954 C645.070934,420.914976 649.401787,420 654.232426,420 C659.312926,420 663.872815,421.06054 667.912229,423.181651 C671.951643,425.302763 675.30389,428.110074 677.96907,431.60367 C680.63425,435.097265 682.570641,439.110681 683.778301,443.644037 C684.985961,448.177393 685.298282,452.856245 684.715274,457.680734 L637.241986,457.680734 Z M697,398 L702.487751,398 L702.487751,482.263305 L753,482.263305 L753,487 L697,487 L697,398 Z M752,454 C752,449.501836 752.645827,445.269537 753.9375,441.302974 C755.229173,437.336411 757.124988,433.840164 759.625,430.814126 C762.125012,427.788089 765.208315,425.39592 768.875,423.637546 C772.541685,421.879173 776.749976,421 781.5,421 C786.250024,421 790.458315,421.879173 794.125,423.637546 C797.791685,425.39592 800.874988,427.788089 803.375,430.814126 C805.875012,433.840164 807.770827,437.336411 809.0625,441.302974 C810.354173,445.269537 811,449.501836 811,454 C811,458.498164 810.354173,462.750909 809.0625,466.758364 C807.770827,470.765819 805.875012,474.262067 803.375,477.247212 C800.874988,480.232357 797.791685,482.60408 794.125,484.362454 C790.458315,486.120827 786.250024,487 781.5,487 C776.749976,487 772.541685,486.120827 768.875,484.362454 C765.208315,482.60408 762.125012,480.232357 759.625,477.247212 C757.124988,474.262067 755.229173,470.765819 753.9375,466.758364 C752.645827,462.750909 752,458.498164 752,454 Z M757,453.5 C757,457.333352 757.547133,461.020816 758.641414,464.5625 C759.735696,468.104184 761.335006,471.249986 763.439394,474 C765.543782,476.750014 768.153183,478.937492 771.267677,480.5625 C774.38217,482.187508 777.959576,483 782,483 C786.040424,483 789.61783,482.187508 792.732323,480.5625 C795.846817,478.937492 798.456218,476.750014 800.560606,474 C802.664994,471.249986 804.264304,468.104184 805.358586,464.5625 C806.452867,461.020816 807,457.333352 807,453.5 C807,449.666647 806.452867,445.979184 805.358586,442.4375 C804.264304,438.895816 802.664994,435.750014 800.560606,433 C798.456218,430.249986 795.846817,428.062508 792.732323,426.4375 C789.61783,424.812492 786.040424,424 782,424 C777.959576,424 774.38217,424.812492 771.267677,426.4375 C768.153183,428.062508 765.543782,430.249986 763.439394,433 C761.335006,435.750014 759.735696,438.895816 758.641414,442.4375 C757.547133,445.979184 757,449.666647 757,453.5 Z M870.684327,441.977695 C870.437085,439.197012 869.715974,436.743505 868.520971,434.6171 C867.325969,432.490696 865.780731,430.732349 863.88521,429.342007 C861.989689,427.951666 859.785149,426.88848 857.271523,426.152416 C854.757898,425.416353 852.058881,425.048327 849.174393,425.048327 C845.218523,425.048327 841.715983,425.845717 838.666667,427.44052 C835.61735,429.035324 833.062556,431.161697 831.002208,433.819703 C828.941859,436.477708 827.376017,439.503701 826.304636,442.89777 C825.233254,446.291839 824.697572,449.788086 824.697572,453.386617 C824.697572,457.639426 825.192048,461.565038 826.181015,465.163569 C827.169983,468.7621 828.694618,471.890321 830.754967,474.548327 C832.815316,477.206333 835.37011,479.271368 838.419426,480.743494 C841.468742,482.215621 845.053695,482.951673 849.174393,482.951673 C852.141295,482.951673 854.881518,482.460971 857.395143,481.479554 C859.908769,480.498136 862.133912,479.148707 864.07064,477.431227 C866.007368,475.713746 867.593813,473.648711 868.830022,471.236059 C870.066231,468.823408 870.890358,466.185888 871.302428,463.32342 L876,463.32342 C875.505516,467.085521 874.475357,470.438647 872.909492,473.3829 C871.343627,476.327152 869.365722,478.801105 866.975717,480.804833 C864.585713,482.80856 861.866093,484.342002 858.816777,485.405204 C855.767461,486.468407 852.553365,487 849.174393,487 C843.982314,487 839.552631,486.079935 835.88521,484.239777 C832.217789,482.399619 829.209725,479.925666 826.860927,476.817844 C824.51213,473.710022 822.781463,470.131991 821.668874,466.083643 C820.556286,462.035296 820,457.802996 820,453.386617 C820,448.970238 820.638699,444.799276 821.916115,440.873606 C823.193531,436.947936 825.06842,433.513026 827.540839,430.568773 C830.013257,427.624521 833.062528,425.293689 836.688742,423.576208 C840.314956,421.858727 844.476798,421 849.174393,421 C852.635779,421 855.870478,421.429364 858.878587,422.288104 C861.886696,423.146844 864.56511,424.434936 866.913907,426.152416 C869.262705,427.869897 871.178801,430.057608 872.662252,432.715613 C874.145703,435.373619 875.052243,438.460949 875.381898,441.977695 L870.684327,441.977695 Z M888,398 L892.7277,398 L892.7277,456.959384 L932.166667,422.929972 L939.00939,422.929972 L911.016432,446.862745 L941,487 L934.530516,487 L907.284038,450.477591 L892.7277,462.817927 L892.7277,487 L888,487 L888,398 Z" id="ShareLock"></path>
        </g>
    </g>
</svg>