<?xml version="1.0" encoding="UTF-8"?>
<svg width="629px" height="723px" viewBox="0 0 629 723" version="1.1" xmlns="http://www.w3.org/2000/svg" xmlns:xlink="http://www.w3.org/1999/xlink">
    <!-- Generator: Sketch 54.1 (76490) - https://sketchapp.com -->
    <title>Logo_SmartLock__smallWhite@3x</title>
    <desc>Created with Sketch.</desc>
    <g id="Logo_SmartLock__smallWhite" stroke="none" stroke-width="1" fill="none" fill-rule="evenodd">
        <g id="Group-2" transform="translate(72.000000, 67.000000)" fill="#FFFFFF" fill-rule="nonzero">
            <path d="M408.5,216.773444 L408.5,156.277778 C408.5,70.1094444 331.3365,0 236.5,0 C141.6635,0 64.5,70.1094444 64.5,156.277778 L64.5,216.773444 C27.93925,223.089222 0,255.034556 0,293.478889 L0,504.098222 C0,547.047667 34.86225,582 77.71175,582 L395.28825,582 C438.13775,582 473,547.047667 473,504.087444 L473,293.468111 C473,255.034556 445.06075,223.089222 408.5,216.773444 Z M86,155.722222 C86,81.431 153.51,21 236.5,21 C319.49,21 387,81.431 387,155.722222 L387,215 L86,215 L86,155.722222 Z M452,504.7011 C452,535.7414 426.7805,561 395.78825,561 L78.21175,561 C47.2195,561 22,535.7414 22,504.7011 L22,294.2989 C22,263.2586 47.2195,238 78.21175,238 L395.78825,238 C426.7805,238 452,263.2586 452,294.2989 L452,504.7011 Z" id="Shape"></path>
        </g>
        <g id="Group" transform="translate(185.000000, 375.000000)" fill="#FFFFFF">
            <path d="M84.7872363,8.39284779 C70.6746665,17.6181723 61.35,33.5565988 61.35,51.6724138 C61.35,72.1914592 73.312773,89.9170959 90.6459128,98.2584435 C62.9491683,109.053501 42.6033711,139.420025 39.4318227,176.307429 C17.2106682,175.984113 0,175.267173 0,174.156608 C3.5327822e-15,136.887888 19.7549799,105.282584 47.113006,94.2564158 C31.8707399,86.4893533 21.4353741,70.679233 21.4353741,52.4386672 C21.4353741,26.5188033 42.5069249,5.50660197 68.5,5.50660197 C74.2253864,5.50660197 79.711995,6.52605174 84.7872363,8.39284779 Z" id="Combined-Shape" opacity="0.300000012"></path>
            <path d="M240.787236,8.39284779 C226.674667,17.6181723 217.35,33.5565988 217.35,51.6724138 C217.35,72.1914592 229.312773,89.9170959 246.645913,98.2584435 C218.949168,109.053501 198.603371,139.420025 195.431823,176.307429 C173.210668,175.984113 156,175.267173 156,174.156608 C156,136.887888 175.75498,105.282584 203.113006,94.2564158 C187.87074,86.4893533 177.435374,70.679233 177.435374,52.4386672 C177.435374,26.5188033 198.506925,5.50660197 224.5,5.50660197 C230.225386,5.50660197 235.711995,6.52605174 240.787236,8.39284779 Z" id="Combined-Shape" opacity="0.300000012" transform="translate(201.322956, 90.907015) scale(-1, 1) translate(-201.322956, -90.907015) "></path>
            <path d="M100.645913,98.2584435 C83.312773,89.9170959 71.35,72.1914592 71.35,51.6724138 C71.35,23.1345277 94.4898829,0 123.034375,0 C151.578867,0 174.71875,23.1345277 174.71875,51.6724138 C174.71875,72.2565535 162.679956,90.0295329 145.257713,98.3375459 C175.809534,110.46003 198,146.612343 198,186.41791 C198,189.860697 49,189.860697 49,186.41791 C49,145.045623 70.45599,110.02524 100.64591,98.2584421 Z" id="Combined-Shape"></path>
        </g>
    </g>
</svg>