<?xml version="1.0" encoding="UTF-8"?>
<svg width="1629px" height="488px" viewBox="0 0 1629 488" version="1.1" xmlns="http://www.w3.org/2000/svg" xmlns:xlink="http://www.w3.org/1999/xlink">
    <!-- Generator: Sketch 54.1 (76490) - https://sketchapp.com -->
    <title>Logo_SmartLock_textWhite@3x</title>
    <desc>Created with Sketch.</desc>
    <g id="Logo_SmartLock_textWhite" stroke="none" stroke-width="1" fill="none" fill-rule="evenodd">
        <path d="M895,319 L895,139 L920.650685,139 L920.650685,299.905405 L1002,299.905405 L1002,319 L895,319 Z M1100.40101,323 C1075.32767,323 1055.1594,314.344681 1039.89559,297.033784 C1024.63179,279.722886 1017,256.83798 1017,228.378378 C1017,199.756614 1024.67249,176.871707 1040.0177,159.722973 C1055.36291,142.574239 1075.85681,134 1101.5,134 C1127.06178,134 1147.53533,142.553969 1162.92124,159.662162 C1178.30716,176.770356 1186,199.594452 1186,228.135135 C1186,257.243389 1178.30716,280.330996 1162.92124,297.398649 C1147.53533,314.466302 1126.69546,323 1100.40101,323 Z M1100.27079,304 C1118.6632,304 1132.88268,297.363373 1142.92964,284.089919 C1152.9766,270.816466 1158,252.083723 1158,227.891129 C1158,204.429184 1152.95634,186.082055 1142.86887,172.849194 C1132.7814,159.616332 1118.82525,153 1101,153 C1083.09373,153 1069.11732,159.636627 1059.07036,172.910081 C1049.0234,186.183534 1044,204.63214 1044,228.256452 C1044,251.79958 1048.98289,270.309072 1058.94883,283.785484 C1068.91476,297.261895 1082.68861,304 1100.27079,304 Z M1298.79483,323 C1270.78802,323 1249.15409,314.790623 1233.89241,298.371622 C1218.63073,281.952621 1211,258.702853 1211,228.621622 C1211,198.621472 1218.77279,175.351434 1234.3186,158.810811 C1249.86441,142.270188 1271.76216,134 1300.01251,134 C1316.16716,134 1335.08163,136.635109 1356.75646,141.905405 L1356.75646,165.864865 C1332.078,157.351309 1313.04177,153.094595 1299.64721,153.094595 C1280.08303,153.094595 1264.94334,159.702637 1254.22769,172.918919 C1243.51204,186.135201 1238.1543,204.783663 1238.1543,228.864865 C1238.1543,251.810926 1243.87734,269.912096 1255.3236,283.168919 C1266.76987,296.425742 1282.39662,303.054054 1302.20434,303.054054 C1319.25196,303.054054 1337.517,297.824377 1357,287.364865 L1357,309.256757 C1339.22176,318.418965 1319.82023,323 1298.79483,323 Z M1394,319 L1394,139 L1417.95946,139 L1417.95946,227.540541 L1490.81081,139 L1516.47297,139 L1445.93243,224.864865 L1529,319 L1496.64865,319 L1417.95946,227.783784 L1417.95946,319 L1394,319 Z" id="LOCK" fill="#FFFFFF" fill-rule="nonzero"></path>
        <path d="M141.418243,323 C129.316139,323 113.843546,320.364891 95,315.094595 L95,289.797297 C115.305545,299.20275 131.996452,303.905405 145.073223,303.905405 C155.144773,303.905405 163.246564,301.270297 169.378839,296 C175.511113,290.729703 178.577205,283.79734 178.577205,275.202703 C178.577205,268.148613 176.566986,262.148673 172.546488,257.202703 C168.52599,252.256732 161.114577,246.743274 150.312028,240.662162 L137.885096,233.486486 C122.534104,224.729686 111.711411,216.479768 105.416692,208.736486 C99.1219735,200.993205 95.9746613,191.973024 95.9746613,181.675676 C95.9746613,167.810741 101.010361,156.398693 111.081911,147.439189 C121.153461,138.479685 133.986373,134 149.581032,134 C163.470024,134 178.130408,136.310788 193.562622,140.932432 L193.562622,164.283784 C174.556632,156.824287 160.383574,153.094595 151.043023,153.094595 C142.189806,153.094595 134.879919,155.445922 129.113145,160.148649 C123.34637,164.851375 120.463026,170.770235 120.463026,177.905405 C120.463026,183.905435 122.574771,189.216193 126.798324,193.837838 C131.021878,198.459483 138.737869,203.972941 149.94653,210.378378 L162.860791,217.675676 C178.45545,226.513558 189.339059,234.864826 195.511944,242.72973 C201.68483,250.594634 204.771226,260.040485 204.771226,271.067568 C204.771226,286.716294 198.984233,299.283736 187.410072,308.77027 C175.835912,318.256804 160.505455,323 141.418243,323 Z M239.862028,318.5 L239.862028,138.5 L265.414049,138.5 L265.414049,214.391892 L351.074158,214.391892 L351.074158,138.5 L376.626179,138.5 L376.626179,318.5 L351.074158,318.5 L351.074158,233.486486 L265.414049,233.486486 L265.414049,318.5 L239.862028,318.5 Z M513.39033,250.1 L482.858927,172.7 L452.206368,250.1 L513.39033,250.1 Z M540.755481,318.5 L521.236562,268.635135 L445.221891,268.635135 L425.460502,318.5 L401.819575,318.5 L472.984825,138.5 L498.201813,138.5 L568.275943,318.5 L540.755481,318.5 Z M594.369104,318.5 L594.369104,138.5 L648.710538,138.5 C665.934918,138.5 679.136035,142.310773 688.314285,149.932432 C697.492534,157.554092 702.08159,168.621549 702.08159,183.135135 C702.08159,207.135255 689.992359,224.162112 665.813534,234.216216 L725.73467,318.5 L694.439826,318.5 L643.373433,242.364865 L619.599056,242.364865 L619.599056,318.5 L594.369104,318.5 Z M619.5625,224 L627.869805,224 C660.121857,224 676.247642,211.387348 676.247642,186.161667 C676.247642,167.587129 662.728045,158.3 635.688445,158.3 L619.5625,158.3 L619.5625,224 Z M751.82783,318.5 L751.82783,138.5 L852.75241,138.5 L852.75241,157.594595 L777.455595,157.594595 L777.455595,215.364865 L840.548712,215.364865 L840.548712,234.216216 L777.455595,234.216216 L777.455595,299.405405 L858,299.405405 L858,318.5 L751.82783,318.5 Z" id="SHARE" fill="#FFFFFF" fill-rule="nonzero"></path>
    </g>
</svg>