<?xml version="1.0" encoding="UTF-8"?>
<svg width="2182px" height="723px" viewBox="0 0 2182 723" version="1.1" xmlns="http://www.w3.org/2000/svg" xmlns:xlink="http://www.w3.org/1999/xlink">
    <!-- Generator: Sketch 54.1 (76490) - https://sketchapp.com -->
    <title>Logo_SmartLock_white@3x</title>
    <desc>Created with Sketch.</desc>
    <g id="Logo_SmartLock_white" stroke="none" stroke-width="1" fill="none" fill-rule="evenodd">
        <path d="M1335.5,283.773444 L1335.5,223.277778 C1335.5,137.109444 1258.3365,67 1163.5,67 C1068.6635,67 991.5,137.109444 991.5,223.277778 L991.5,283.773444 C954.93925,290.089222 927,322.034556 927,360.478889 L927,571.098222 C927,614.047667 961.86225,649 1004.71175,649 L1322.28825,649 C1365.13775,649 1400,614.047667 1400,571.087444 L1400,360.468111 C1400,322.034556 1372.06075,290.089222 1335.5,283.773444 Z M1013,222.722222 C1013,148.431 1080.51,88 1163.5,88 C1246.49,88 1314,148.431 1314,222.722222 L1314,282 L1013,282 L1013,222.722222 Z M1379,571.7011 C1379,602.7414 1353.7805,628 1322.78825,628 L1005.21175,628 C974.2195,628 949,602.7414 949,571.7011 L949,361.2989 C949,330.2586 974.2195,305 1005.21175,305 L1322.78825,305 C1353.7805,305 1379,330.2586 1379,361.2989 L1379,571.7011 Z" id="Shape" fill="#FFFFFF" fill-rule="nonzero"></path>
        <path d="M1474,554 L1474,374 L1499.65068,374 L1499.65068,534.905405 L1581,534.905405 L1581,554 L1474,554 Z M1679.40101,558 C1654.32767,558 1634.1594,549.344681 1618.89559,532.033784 C1603.63179,514.722886 1596,491.83798 1596,463.378378 C1596,434.756614 1603.67249,411.871707 1619.0177,394.722973 C1634.36291,377.574239 1654.85681,369 1680.5,369 C1706.06178,369 1726.53533,377.553969 1741.92124,394.662162 C1757.30716,411.770356 1765,434.594452 1765,463.135135 C1765,492.243389 1757.30716,515.330996 1741.92124,532.398649 C1726.53533,549.466302 1705.69546,558 1679.40101,558 Z M1679.27079,539 C1697.6632,539 1711.88268,532.363373 1721.92964,519.089919 C1731.9766,505.816466 1737,487.083723 1737,462.891129 C1737,439.429184 1731.95634,421.082055 1721.86887,407.849194 C1711.7814,394.616332 1697.82525,388 1680,388 C1662.09373,388 1648.11732,394.636627 1638.07036,407.910081 C1628.0234,421.183534 1623,439.63214 1623,463.256452 C1623,486.79958 1627.98289,505.309072 1637.94883,518.785484 C1647.91476,532.261895 1661.68861,539 1679.27079,539 Z M1877.79483,558 C1849.78802,558 1828.15409,549.790623 1812.89241,533.371622 C1797.63073,516.952621 1790,493.702853 1790,463.621622 C1790,433.621472 1797.77279,410.351434 1813.3186,393.810811 C1828.86441,377.270188 1850.76216,369 1879.01251,369 C1895.16716,369 1914.08163,371.635109 1935.75646,376.905405 L1935.75646,400.864865 C1911.078,392.351309 1892.04177,388.094595 1878.64721,388.094595 C1859.08303,388.094595 1843.94334,394.702637 1833.22769,407.918919 C1822.51204,421.135201 1817.1543,439.783663 1817.1543,463.864865 C1817.1543,486.810926 1822.87734,504.912096 1834.3236,518.168919 C1845.76987,531.425742 1861.39662,538.054054 1881.20434,538.054054 C1898.25196,538.054054 1916.517,532.824377 1936,522.364865 L1936,544.256757 C1918.22176,553.418965 1898.82023,558 1877.79483,558 Z M1973,554 L1973,374 L1996.95946,374 L1996.95946,462.540541 L2069.81081,374 L2095.47297,374 L2024.93243,459.864865 L2108,554 L2075.64865,554 L1996.95946,462.783784 L1996.95946,554 L1973,554 Z" id="LOCK" fill="#FFFFFF" fill-rule="nonzero"></path>
        <path d="M141.418243,558 C129.316139,558 113.843546,555.364891 95,550.094595 L95,524.797297 C115.305545,534.20275 131.996452,538.905405 145.073223,538.905405 C155.144773,538.905405 163.246564,536.270297 169.378839,531 C175.511113,525.729703 178.577205,518.79734 178.577205,510.202703 C178.577205,503.148613 176.566986,497.148673 172.546488,492.202703 C168.52599,487.256732 161.114577,481.743274 150.312028,475.662162 L137.885096,468.486486 C122.534104,459.729686 111.711411,451.479768 105.416692,443.736486 C99.1219735,435.993205 95.9746613,426.973024 95.9746613,416.675676 C95.9746613,402.810741 101.010361,391.398693 111.081911,382.439189 C121.153461,373.479685 133.986373,369 149.581032,369 C163.470024,369 178.130408,371.310788 193.562622,375.932432 L193.562622,399.283784 C174.556632,391.824287 160.383574,388.094595 151.043023,388.094595 C142.189806,388.094595 134.879919,390.445922 129.113145,395.148649 C123.34637,399.851375 120.463026,405.770235 120.463026,412.905405 C120.463026,418.905435 122.574771,424.216193 126.798324,428.837838 C131.021878,433.459483 138.737869,438.972941 149.94653,445.378378 L162.860791,452.675676 C178.45545,461.513558 189.339059,469.864826 195.511944,477.72973 C201.68483,485.594634 204.771226,495.040485 204.771226,506.067568 C204.771226,521.716294 198.984233,534.283736 187.410072,543.77027 C175.835912,553.256804 160.505455,558 141.418243,558 Z M239.862028,553.5 L239.862028,373.5 L265.414049,373.5 L265.414049,449.391892 L351.074158,449.391892 L351.074158,373.5 L376.626179,373.5 L376.626179,553.5 L351.074158,553.5 L351.074158,468.486486 L265.414049,468.486486 L265.414049,553.5 L239.862028,553.5 Z M513.39033,485.1 L482.858927,407.7 L452.206368,485.1 L513.39033,485.1 Z M540.755481,553.5 L521.236562,503.635135 L445.221891,503.635135 L425.460502,553.5 L401.819575,553.5 L472.984825,373.5 L498.201813,373.5 L568.275943,553.5 L540.755481,553.5 Z M594.369104,553.5 L594.369104,373.5 L648.710538,373.5 C665.934918,373.5 679.136035,377.310773 688.314285,384.932432 C697.492534,392.554092 702.08159,403.621549 702.08159,418.135135 C702.08159,442.135255 689.992359,459.162112 665.813534,469.216216 L725.73467,553.5 L694.439826,553.5 L643.373433,477.364865 L619.599056,477.364865 L619.599056,553.5 L594.369104,553.5 Z M619.5625,459 L627.869805,459 C660.121857,459 676.247642,446.387348 676.247642,421.161667 C676.247642,402.587129 662.728045,393.3 635.688445,393.3 L619.5625,393.3 L619.5625,459 Z M751.82783,553.5 L751.82783,373.5 L852.75241,373.5 L852.75241,392.594595 L777.455595,392.594595 L777.455595,450.364865 L840.548712,450.364865 L840.548712,469.216216 L777.455595,469.216216 L777.455595,534.405405 L858,534.405405 L858,553.5 L751.82783,553.5 Z" id="SHARE" fill="#FFFFFF" fill-rule="nonzero"></path>
        <g id="Group" transform="translate(1040.000000, 375.000000)" fill="#FFFFFF">
            <path d="M84.7872363,8.39284779 C70.6746665,17.6181723 61.35,33.5565988 61.35,51.6724138 C61.35,72.1914592 73.312773,89.9170959 90.6459128,98.2584435 C62.9491683,109.053501 42.6033711,139.420025 39.4318227,176.307429 C17.2106682,175.984113 0,175.267173 0,174.156608 C3.5327822e-15,136.887888 19.7549799,105.282584 47.113006,94.2564158 C31.8707399,86.4893533 21.4353741,70.679233 21.4353741,52.4386672 C21.4353741,26.5188033 42.5069249,5.50660197 68.5,5.50660197 C74.2253864,5.50660197 79.711995,6.52605174 84.7872363,8.39284779 Z" id="Combined-Shape" opacity="0.300000012"></path>
            <path d="M240.787236,8.39284779 C226.674667,17.6181723 217.35,33.5565988 217.35,51.6724138 C217.35,72.1914592 229.312773,89.9170959 246.645913,98.2584435 C218.949168,109.053501 198.603371,139.420025 195.431823,176.307429 C173.210668,175.984113 156,175.267173 156,174.156608 C156,136.887888 175.75498,105.282584 203.113006,94.2564158 C187.87074,86.4893533 177.435374,70.679233 177.435374,52.4386672 C177.435374,26.5188033 198.506925,5.50660197 224.5,5.50660197 C230.225386,5.50660197 235.711995,6.52605174 240.787236,8.39284779 Z" id="Combined-Shape" opacity="0.300000012" transform="translate(201.322956, 90.907015) scale(-1, 1) translate(-201.322956, -90.907015) "></path>
            <path d="M100.645913,98.2584435 C83.312773,89.9170959 71.35,72.1914592 71.35,51.6724138 C71.35,23.1345277 94.4898829,0 123.034375,0 C151.578867,0 174.71875,23.1345277 174.71875,51.6724138 C174.71875,72.2565535 162.679956,90.0295329 145.257713,98.3375459 C175.809534,110.46003 198,146.612343 198,186.41791 C198,189.860697 49,189.860697 49,186.41791 C49,145.045623 70.45599,110.02524 100.64591,98.2584421 Z" id="Combined-Shape"></path>
        </g>
    </g>
</svg>